PathFileType	4	(X/Y/Z)	C:/Users/opensim2020/Desktop/walking_exp_matlab/subject03_walking04_straight_03.trc	
DataRate	CameraRate	NumFrames	NumMarkers	Units	OrigDataRate	OrigDataStartFrame	OrigNumFrames	
100.00	100.00	6	51	mm	100.00	2437	256	
Frame#	Time	LFHD			RFHD			LBHD			RBHD			C7			T10			CLAV			STRN			RBAK			LSHO			LUPA			LELB			LFRM			LWRA			LWRB			LFIN			RSHO			RUPA			RELB			RFRM			RWRA			RWRB			RFIN			LASI			RASI			LPSI			RPSI			LTHI			LKNE			LTIB			LANK			LHEE			LTOE			RTHI			RKNE			RTIB			RANK			RHEE			RTOE			*39			*40			*41			*42			*43			*44			*45			*46			*47			*48			*49			*50			
		X1	Y1	Z1	X2	Y2	Z2	X3	Y3	Z3	X4	Y4	Z4	X5	Y5	Z5	X6	Y6	Z6	X7	Y7	Z7	X8	Y8	Z8	X9	Y9	Z9	X10	Y10	Z10	X11	Y11	Z11	X12	Y12	Z12	X13	Y13	Z13	X14	Y14	Z14	X15	Y15	Z15	X16	Y16	Z16	X17	Y17	Z17	X18	Y18	Z18	X19	Y19	Z19	X20	Y20	Z20	X21	Y21	Z21	X22	Y22	Z22	X23	Y23	Z23	X24	Y24	Z24	X25	Y25	Z25	X26	Y26	Z26	X27	Y27	Z27	X28	Y28	Z28	X29	Y29	Z29	X30	Y30	Z30	X31	Y31	Z31	X32	Y32	Z32	X33	Y33	Z33	X34	Y34	Z34	X35	Y35	Z35	X36	Y36	Z36	X37	Y37	Z37	X38	Y38	Z38	X39	Y39	Z39	X40	Y40	Z40	X41	Y41	Z41	X42	Y42	Z42	X43	Y43	Z43	X44	Y44	Z44	X45	Y45	Z45	X46	Y46	Z46	X47	Y47	Z47	X48	Y48	Z48	X49	Y49	Z49	X50	Y50	Z50	X51	Y51	Z51	

193	1.920	-1237.02661	641.83112	1598.61060	-1105.62720	618.79437	1604.62317	-1253.50427	513.85431	1556.66589	-1123.86829	496.48282	1562.72717	-1185.06409	474.65002	1398.13330	-1184.67151	438.13120	1084.73132	-1182.41785	596.31415	1319.74585	-1181.71216	636.33942	1154.12390	-1081.92993	420.67709	1227.34265	-1340.68835	549.93396	1353.82483	-1405.65869	504.54364	1157.07568	-1414.94788	486.56924	1034.53418	-1410.97754	486.20923	903.35065	-1377.77014	480.68298	786.18085	-1428.83411	458.98474	793.52039	-1416.42944	455.89572	709.43213	-1024.05469	555.36865	1347.61072	-942.47339	598.12054	1134.99097	-925.96191	644.93005	1034.45911	-929.31244	717.86761	919.64630	-970.68182	786.21234	850.97412	-927.17773	762.63806	829.80078	-939.55286	817.08673	781.20813	-1288.99243	614.73950	919.56860	-1050.50732	590.75897	918.20453	-1258.32764	448.04010	941.74292	-1109.19946	435.37054	953.08759	-1344.04456	611.15302	619.46478	-1298.19067	675.03168	455.46713	-1306.62317	689.51575	268.01962	-1278.16638	749.75421	64.29017	-1240.45508	719.84991	24.88173	-1256.83569	905.03265	56.42506	-1021.56488	476.83884	634.75702	-1056.71948	444.58926	457.40939	-1059.23120	335.40500	295.92224	-1111.75598	233.13063	104.42474	-1163.02429	182.20775	88.95524	-1130.36560	358.40567	28.44669	-1201.01331	553.13611	1663.19543																																	 
194	1.930	-1237.31653	652.66388	1598.55347	-1105.84937	629.05334	1604.47534	-1254.35535	524.73260	1556.56018	-1124.75317	506.88113	1562.49731	-1186.28711	485.12155	1397.73218	-1185.44983	449.80954	1084.08704	-1183.27820	607.11487	1319.72961	-1182.48657	647.63983	1154.29456	-1083.67200	431.55112	1226.65381	-1341.71155	561.01160	1353.51392	-1406.25049	515.68701	1156.52979	-1415.28979	497.58054	1033.90442	-1411.15735	496.50583	902.72797	-1378.16638	490.46960	785.73022	-1429.05310	468.64972	793.08734	-1416.51343	464.83231	709.02655	-1024.93115	565.36536	1347.36841	-943.40533	607.90454	1134.53259	-926.89636	654.37909	1033.83032	-930.10107	727.22504	918.82678	-971.36951	795.19305	849.94720	-927.98761	771.47186	828.82477	-940.29468	825.80536	780.07123	-1289.72168	626.32129	919.65027	-1051.07031	602.33551	917.42621	-1259.31848	459.62289	942.02844	-1109.96301	446.92056	952.49719	-1344.04065	624.09204	621.05347	-1298.57434	685.46808	455.76544	-1306.07031	696.87256	267.90033	-1278.67651	753.28308	63.14715	-1240.71313	720.72870	25.87999	-1252.09631	907.37256	45.37823	-1022.01312	487.60394	634.08350	-1056.70178	454.77499	456.76590	-1058.81348	342.42346	297.20554	-1110.60449	235.86830	108.03119	-1161.68115	184.60616	93.98750	-1130.13196	358.74725	28.27607	-1201.57800	563.55414	1661.89368																																	 
195	1.940	-1237.56604	663.57233	1598.97522	-1106.23425	639.47650	1604.74146	-1255.21631	535.71619	1557.03052	-1125.65552	517.26019	1562.73938	-1187.62366	495.70917	1397.75952	-1186.01672	461.45761	1083.94971	-1184.09607	617.89185	1320.14917	-1183.16724	658.93182	1154.81689	-1085.35437	442.07324	1226.24609	-1342.85376	572.14349	1353.49072	-1406.90942	527.23132	1156.15637	-1415.67175	508.95508	1033.53613	-1411.39404	507.28366	902.33746	-1378.41919	500.76822	785.40790	-1429.31042	478.84915	792.75476	-1416.69177	474.29025	708.78778	-1025.75952	575.48218	1347.50183	-944.43182	617.56549	1134.26880	-927.84094	663.66211	1033.30664	-930.80542	735.95813	917.95111	-972.01239	803.78424	848.82214	-928.73730	779.82141	827.76904	-940.99365	833.87213	778.70264	-1290.49756	638.09625	920.38257	-1051.82251	614.22839	916.80945	-1259.98376	471.40332	942.88831	-1110.38611	458.85040	952.24237	-1343.99866	637.63074	623.50330	-1299.42188	694.97223	456.68793	-1306.60559	703.81134	267.96088	-1279.12451	757.31598	63.05997	-1242.42615	722.23425	27.24076	-1246.92896	909.89502	38.59705	-1022.49420	498.80466	633.55145	-1056.65356	465.68115	456.21194	-1058.46033	350.05524	298.69370	-1109.51465	239.37720	112.04667	-1160.52161	187.58926	99.62854	-1129.92554	359.34793	28.40000	-1201.83459	574.01648	1661.66028																																	 
196	1.950	-1237.73633	674.54248	1599.71497	-1106.43408	649.87073	1605.23633	-1256.03516	546.73535	1557.98035	-1126.61707	527.72668	1563.45300	-1188.82996	506.36740	1398.24292	-1186.42590	473.00320	1084.22180	-1184.98035	628.72974	1320.93555	-1183.91479	670.30231	1155.74341	-1087.01843	452.85178	1226.13074	-1343.91296	583.33972	1353.79785	-1407.56250	539.04431	1156.12732	-1416.08545	520.82819	1033.43469	-1411.77112	518.78119	902.50891	-1377.34778	510.00558	784.71283	-1429.74548	489.74927	792.89496	-1416.83191	484.46475	708.86621	-1026.55225	585.72919	1347.93103	-945.49939	627.07513	1134.24817	-928.78229	672.80829	1033.01965	-931.82532	744.35150	917.12225	-972.68939	811.83789	847.53961	-929.46851	787.60492	826.66467	-941.64459	841.24475	777.29816	-1291.18140	650.01428	921.88470	-1052.64758	626.38861	916.35822	-1260.22217	482.93887	944.46356	-1110.53735	470.96909	952.15399	-1343.65637	651.05804	626.31140	-1300.33472	703.86920	457.57050	-1307.47156	710.46783	268.28989	-1278.84802	761.34924	63.19691	-1243.08447	723.96179	28.58513	-1246.54968	912.87610	35.83648	-1023.02734	510.72037	633.11023	-1056.56519	477.47821	455.78098	-1058.04065	358.25739	300.52139	-1108.43750	243.11674	116.51967	-1159.66565	191.28300	105.85956	-1129.70679	360.08261	28.28744	-1202.54199	585.09473	1662.76465																																	 
197	1.960	-1237.85339	685.63989	1600.74292	-1106.63757	660.40155	1606.04810	-1256.87451	557.83044	1559.21460	-1127.46594	538.22949	1564.48486	-1190.13306	517.38953	1399.22400	-1186.78772	484.45148	1084.92932	-1185.84644	639.54828	1322.10071	-1184.67639	681.63391	1157.05615	-1088.52930	463.63055	1226.54211	-1344.93445	594.59943	1354.50928	-1408.15234	551.10968	1156.44531	-1416.45776	533.14520	1033.66687	-1411.97253	530.66644	902.69629	-1377.50085	521.22552	785.00275	-1429.87793	501.24750	793.08112	-1416.73840	494.71793	708.61316	-1027.34961	596.09045	1348.81958	-946.65741	636.59460	1134.64807	-929.82062	681.79108	1032.97949	-932.62823	752.30841	916.39655	-973.29626	819.38721	846.21552	-930.24524	794.70221	825.60376	-942.17871	848.05859	775.84174	-1291.90381	661.77527	924.15656	-1053.66382	638.82983	916.16302	-1260.24365	494.45370	946.45947	-1110.41846	483.22235	952.36841	-1343.03528	663.92883	629.54974	-1300.98767	712.61530	459.34344	-1308.48096	717.29572	269.10263	-1278.06934	762.48853	63.16879	-1242.49902	724.76831	29.22195	-1249.75977	914.91675	34.47189	-1023.46417	523.30060	632.73456	-1056.43262	490.18790	455.44070	-1057.74451	367.00415	302.80801	-1107.41577	247.54341	121.62624	-1158.81982	195.83919	112.96270	-1129.42639	360.81924	28.30115	-1203.07507	596.15961	1663.83496																																	 
198	1.970	-1237.94067	696.77625	1602.05237	-1106.78955	670.88123	1607.11670	-1257.69946	569.00134	1560.83203	-1128.42517	548.70758	1565.75757	-1191.15942	528.07654	1400.58215	-1186.93811	495.71545	1086.04089	-1186.69470	650.26349	1323.58215	-1185.37378	692.97919	1158.73022	-1089.77173	474.43509	1227.36218	-1345.88477	605.81836	1355.64099	-1408.71301	563.47278	1157.19849	-1416.85730	545.90106	1034.28760	-1412.17883	543.16107	903.32147	-1377.13257	532.14435	785.04694	-1430.26746	513.47656	793.70947	-1417.21155	506.63535	709.78497	-1028.20190	606.57483	1350.06628	-947.80798	645.94849	1135.37634	-930.99402	690.65009	1033.32446	-933.71307	759.92133	915.85712	-973.94641	826.32941	844.94202	-931.08319	801.25592	824.66345	-942.56091	854.00214	774.34796	-1292.70715	673.56158	926.91486	-1054.82520	651.34625	916.29572	-1260.10156	506.01807	948.86731	-1110.22754	495.79926	952.81140	-1342.66223	675.69647	632.79016	-1301.55151	721.68408	461.32092	-1309.84937	723.63153	270.11523	-1277.45117	763.16272	63.25182	-1242.10022	725.06024	29.46145	-1250.50293	915.90057	33.68623	-1023.91882	536.61646	632.44073	-1056.21191	503.89377	455.19791	-1057.41602	376.71475	305.54974	-1106.52710	253.05643	127.28326	-1158.19470	201.66022	120.82529	-1129.43921	361.56311	28.17157	-1203.48218	607.32129	1665.22424																																	 
